{"title":"Seven Years in Tibet(1997)MPEG-4[DaScubaDude]","uid":14885204,"size":1527643666,"categoryP":"video","categoryS":"movies","magnet":"?xt=urn:btih:0e5699f035d7436031cb84b020a15707a277e0d7&amp;dn=Seven+Years+in+Tibet%281997%29MPEG-4%5BDaScubaDude%5D&amp;tr=udp%3A%2F%2Ftracker.leechers-paradise.org%3A6969&amp;tr=udp%3A%2F%2Fzer0day.ch%3A1337&amp;tr=udp%3A%2F%2Fopen.demonii.com%3A1337&amp;tr=udp%3A%2F%2Ftracker.coppersurfer.tk%3A6969&amp;tr=udp%3A%2F%2Fexodus.desync.com%3A6969","seeders":1,"leechers":0,"uploader":"dascuba","files":1,"time":1465727751,"description":"Seven Years in Tibet (1997)\r\nPG-13 | 2h 16min | Adventure, Biography, Drama | 10 October 1997 (USA)\r\nTrue story of Heinrich Harrer, an Austrian mountain climber who became friends with the Dalai Lama at the time of China's takeover of Tibet.\r\nDirector: Jean-Jacques Annaud\r\nWriters: Heinrich Harrer (book), Becky Johnston (screenplay)\r\nStars: Brad Pitt, David Thewlis, BD Wong |\r\n\r\nGeneral\r\nComplete name                            : SevenYearsinTibetDVD_VIDEO_Title1.mp4\r\nFormat                                   : MPEG-4\r\nFormat profile                           : Base Media\r\nCodec ID                                 : isom (isom/iso2/avc1/mp41)\r\nFile size                                : 1.42 GiB\r\nDuration                                 : 2h 16mn\r\nOverall bit rate mode                    : Variable\r\nOverall bit rate                         : 1 498 Kbps\r\nMovie name                               : DVD_VIDEO\r\nGenre                                    : Drama\r\nWriting application                      : Lavf54.6.100\r\n\r\nVideo\r\nID                                       : 1\r\nFormat                                   : AVC\r\nFormat/Info                              : Advanced Video Codec\r\nFormat profile                           :   \r\nFormat settings, CABAC                   : No\r\nFormat settings, ReFrames                : 6 frames\r\nCodec ID                                 : avc1\r\nCodec ID/Info                            : Advanced Video Coding\r\nDuration                                 : 2h 16mn\r\nBit rate                                 : 1 201 Kbps\r\nWidth                                    : 720 pixels\r\nHeight                                   : 540 pixels\r\nDisplay aspect ratio                     : 4:3\r\nFrame rate mode                          : Constant\r\nFrame rate                               : 29.970 (30000/1001) fps\r\nColor space                              : YUV\r\nChroma subsampling                       : 4:2:0\r\nBit depth                                : 8 bits\r\nScan type                                : Progressive\r\nBits/(Pixel*Frame)                       : 0.103\r\nStream size                              : 1.14 GiB (80%)\r\n\r\nAudio\r\nID                                       : 2\r\nFormat                                   : AAC\r\nFormat/Info                              : Advanced Audio Codec\r\nFormat profile                           : LC\r\nCodec ID                                 : 40\r\nDuration                                 : 2h 16mn\r\nBit rate mode                            : Variable\r\nBit rate                                 : 288 Kbps\r\nMaximum bit rate                         : 303 Kbps\r\nChannel(s)                               : 2 channels\r\nChannel(s)_Original                      : 6 channels\r\nChannel positions                        : Front: L C R, Side: L R, LFE\r\nSampling rate                            : 44.1 KHz\r\nFrame rate                               : 43.066 fps (1024 spf)\r\nCompression mode                         : Lossy\r\nStream size                              : 282 MiB (19%)\r\nDefault                                  : Yes\r\nAlternate group                          : 1","torrent":{"xt":"urn:btih:0e5699f035d7436031cb84b020a15707a277e0d7","amp;dn":"Seven+Years+in+Tibet%281997%29MPEG-4%5BDaScubaDude%5D","amp;tr":["udp%3A%2F%2Ftracker.leechers-paradise.org%3A6969","udp%3A%2F%2Fzer0day.ch%3A1337","udp%3A%2F%2Fopen.demonii.com%3A1337","udp%3A%2F%2Ftracker.coppersurfer.tk%3A6969","udp%3A%2F%2Fexodus.desync.com%3A6969"],"infoHash":"0e5699f035d7436031cb84b020a15707a277e0d7","infoHashBuffer":{"type":"Buffer","data":[14,86,153,240,53,215,67,96,49,203,132,176,32,161,87,7,162,119,224,215]},"announce":[],"urlList":[]}}